<mxfile host="app.diagrams.net" agent="Mozilla/5.0 (Windows NT 10.0; Win64; x64) AppleWebKit/537.36 (KHTML, like Gecko) Chrome/135.0.0.0 Safari/537.36" version="26.1.3">
  <diagram id="C5RBs43oDa-KdzZeNtuy" name="Page-1">
    <mxGraphModel dx="1000" dy="505" grid="0" gridSize="10" guides="1" tooltips="1" connect="1" arrows="1" fold="1" page="1" pageScale="1" pageWidth="827" pageHeight="1169" math="0" shadow="0">
      <root>
        <mxCell id="WIyWlLk6GJQsqaUBKTNV-0" />
        <mxCell id="WIyWlLk6GJQsqaUBKTNV-1" parent="WIyWlLk6GJQsqaUBKTNV-0" />
        <mxCell id="O6bAntiXb9O7OsNbi0wT-8" style="edgeStyle=orthogonalEdgeStyle;rounded=0;orthogonalLoop=1;jettySize=auto;html=1;exitX=0.5;exitY=1;exitDx=0;exitDy=0;entryX=0.424;entryY=0.013;entryDx=0;entryDy=0;endArrow=open;endFill=0;endSize=12;entryPerimeter=0;" edge="1" parent="WIyWlLk6GJQsqaUBKTNV-1" source="KC0JBzl_3fo8Be8MP1vC-3" target="O6bAntiXb9O7OsNbi0wT-1">
          <mxGeometry relative="1" as="geometry">
            <Array as="points">
              <mxPoint x="202" y="540" />
            </Array>
          </mxGeometry>
        </mxCell>
        <mxCell id="KC0JBzl_3fo8Be8MP1vC-3" value="Form1" style="rounded=0;whiteSpace=wrap;html=1;" parent="WIyWlLk6GJQsqaUBKTNV-1" vertex="1">
          <mxGeometry x="142" y="350" width="120" height="30" as="geometry" />
        </mxCell>
        <mxCell id="KC0JBzl_3fo8Be8MP1vC-11" value="DrawLineCommand" style="swimlane;fontStyle=0;childLayout=stackLayout;horizontal=1;startSize=26;fillColor=none;horizontalStack=0;resizeParent=1;resizeParentMax=0;resizeLast=0;collapsible=1;marginBottom=0;whiteSpace=wrap;html=1;" parent="WIyWlLk6GJQsqaUBKTNV-1" vertex="1">
          <mxGeometry x="380" y="520" width="190" height="170" as="geometry">
            <mxRectangle x="262" y="500" width="120" height="30" as="alternateBounds" />
          </mxGeometry>
        </mxCell>
        <mxCell id="KC0JBzl_3fo8Be8MP1vC-12" value="- canvas: Canvas&lt;div&gt;- pen: Pen&lt;/div&gt;&lt;div&gt;- points: Point[]&lt;div&gt;- backup: Bitmap&lt;/div&gt;&lt;/div&gt;" style="text;strokeColor=none;fillColor=none;align=left;verticalAlign=top;spacingLeft=4;spacingRight=4;overflow=hidden;rotatable=0;points=[[0,0.5],[1,0.5]];portConstraint=eastwest;whiteSpace=wrap;html=1;" parent="KC0JBzl_3fo8Be8MP1vC-11" vertex="1">
          <mxGeometry y="26" width="190" height="64" as="geometry" />
        </mxCell>
        <mxCell id="O6bAntiXb9O7OsNbi0wT-17" value="" style="line;strokeWidth=1;fillColor=none;align=left;verticalAlign=middle;spacingTop=-1;spacingLeft=3;spacingRight=3;rotatable=0;labelPosition=right;points=[];portConstraint=eastwest;strokeColor=inherit;" vertex="1" parent="KC0JBzl_3fo8Be8MP1vC-11">
          <mxGeometry y="90" width="190" height="8" as="geometry" />
        </mxCell>
        <mxCell id="O6bAntiXb9O7OsNbi0wT-19" value="+DrawLineCommand(canvas:&lt;div&gt;Canvas, pen: Pen,&amp;nbsp;&lt;span style=&quot;background-color: transparent; color: light-dark(rgb(0, 0, 0), rgb(255, 255, 255));&quot;&gt;points:&amp;nbsp;&lt;/span&gt;&lt;span style=&quot;background-color: transparent; color: light-dark(rgb(0, 0, 0), rgb(255, 255, 255));&quot;&gt;Point&lt;/span&gt;&lt;span style=&quot;background-color: transparent; color: light-dark(rgb(0, 0, 0), rgb(255, 255, 255));&quot;&gt;[]&lt;/span&gt;&lt;span style=&quot;background-color: transparent; color: light-dark(rgb(0, 0, 0), rgb(255, 255, 255));&quot;&gt;)&lt;/span&gt;&lt;/div&gt;&lt;div&gt;&lt;div&gt;+Execute()&lt;/div&gt;&lt;div&gt;+Undo()&lt;/div&gt;&lt;/div&gt;" style="text;strokeColor=none;fillColor=none;align=left;verticalAlign=top;spacingLeft=4;spacingRight=4;overflow=hidden;rotatable=0;points=[[0,0.5],[1,0.5]];portConstraint=eastwest;whiteSpace=wrap;html=1;fontStyle=0" vertex="1" parent="KC0JBzl_3fo8Be8MP1vC-11">
          <mxGeometry y="98" width="190" height="72" as="geometry" />
        </mxCell>
        <mxCell id="KC0JBzl_3fo8Be8MP1vC-33" value="&lt;div&gt;&lt;i&gt;«interface»&lt;/i&gt;&lt;/div&gt;ICommand" style="swimlane;fontStyle=2;childLayout=stackLayout;horizontal=1;startSize=27;fillColor=none;horizontalStack=0;resizeParent=1;resizeParentMax=0;resizeLast=0;collapsible=1;marginBottom=0;whiteSpace=wrap;html=1;" parent="WIyWlLk6GJQsqaUBKTNV-1" vertex="1">
          <mxGeometry x="590" y="336" width="140" height="70" as="geometry">
            <mxRectangle x="382" y="370" width="138" height="30" as="alternateBounds" />
          </mxGeometry>
        </mxCell>
        <mxCell id="KC0JBzl_3fo8Be8MP1vC-35" value="&lt;div&gt;&lt;span style=&quot;font-style: normal;&quot;&gt;Execute()&lt;/span&gt;&lt;/div&gt;&lt;div&gt;&lt;span style=&quot;font-style: normal;&quot;&gt;Undo()&lt;/span&gt;&lt;/div&gt;" style="text;strokeColor=none;fillColor=none;align=left;verticalAlign=top;spacingLeft=4;spacingRight=4;overflow=hidden;rotatable=0;points=[[0,0.5],[1,0.5]];portConstraint=eastwest;whiteSpace=wrap;html=1;fontStyle=2" parent="KC0JBzl_3fo8Be8MP1vC-33" vertex="1">
          <mxGeometry y="27" width="140" height="43" as="geometry" />
        </mxCell>
        <mxCell id="yHOgOAt53ZyQ0nN1Mm53-0" value="ClearCanvasCommand" style="swimlane;fontStyle=0;childLayout=stackLayout;horizontal=1;startSize=26;fillColor=none;horizontalStack=0;resizeParent=1;resizeParentMax=0;resizeLast=0;collapsible=1;marginBottom=0;whiteSpace=wrap;html=1;" parent="WIyWlLk6GJQsqaUBKTNV-1" vertex="1">
          <mxGeometry x="580" y="610" width="190" height="150" as="geometry">
            <mxRectangle x="130" y="148" width="120" height="30" as="alternateBounds" />
          </mxGeometry>
        </mxCell>
        <mxCell id="O6bAntiXb9O7OsNbi0wT-20" value="- canvas: Canvas&lt;div&gt;- backup: Bitmap&lt;/div&gt;" style="text;strokeColor=none;fillColor=none;align=left;verticalAlign=top;spacingLeft=4;spacingRight=4;overflow=hidden;rotatable=0;points=[[0,0.5],[1,0.5]];portConstraint=eastwest;whiteSpace=wrap;html=1;" vertex="1" parent="yHOgOAt53ZyQ0nN1Mm53-0">
          <mxGeometry y="26" width="190" height="44" as="geometry" />
        </mxCell>
        <mxCell id="O6bAntiXb9O7OsNbi0wT-18" value="" style="line;strokeWidth=1;fillColor=none;align=left;verticalAlign=middle;spacingTop=-1;spacingLeft=3;spacingRight=3;rotatable=0;labelPosition=right;points=[];portConstraint=eastwest;strokeColor=inherit;" vertex="1" parent="yHOgOAt53ZyQ0nN1Mm53-0">
          <mxGeometry y="70" width="190" height="8" as="geometry" />
        </mxCell>
        <mxCell id="KC0JBzl_3fo8Be8MP1vC-13" value="+ClearCanvasCommand(canvas:&lt;br&gt;&lt;span style=&quot;background-color: transparent; color: light-dark(rgb(0, 0, 0), rgb(255, 255, 255));&quot;&gt;Canvas&lt;/span&gt;)&lt;div&gt;&lt;div&gt;+Execute()&lt;/div&gt;&lt;div&gt;+Undo()&lt;/div&gt;&lt;div&gt;&lt;i&gt;&lt;br&gt;&lt;/i&gt;&lt;/div&gt;&lt;/div&gt;" style="text;strokeColor=none;fillColor=none;align=left;verticalAlign=top;spacingLeft=4;spacingRight=4;overflow=hidden;rotatable=0;points=[[0,0.5],[1,0.5]];portConstraint=eastwest;whiteSpace=wrap;html=1;fontStyle=0" parent="yHOgOAt53ZyQ0nN1Mm53-0" vertex="1">
          <mxGeometry y="78" width="190" height="72" as="geometry" />
        </mxCell>
        <mxCell id="yHOgOAt53ZyQ0nN1Mm53-4" value="CommandHistory" style="swimlane;fontStyle=0;childLayout=stackLayout;horizontal=1;startSize=26;fillColor=none;horizontalStack=0;resizeParent=1;resizeParentMax=0;resizeLast=0;collapsible=1;marginBottom=0;whiteSpace=wrap;html=1;" parent="WIyWlLk6GJQsqaUBKTNV-1" vertex="1">
          <mxGeometry x="340" y="320" width="200" height="160" as="geometry">
            <mxRectangle x="262" y="500" width="120" height="30" as="alternateBounds" />
          </mxGeometry>
        </mxCell>
        <mxCell id="O6bAntiXb9O7OsNbi0wT-25" value="- excommands: ICommand[]&lt;br&gt;&lt;div&gt;- undocommands: ICommand[]&lt;/div&gt;&lt;div&gt;+ CanUndo: bool&lt;/div&gt;&lt;div&gt;+ CanRedo: bool&lt;/div&gt;" style="text;strokeColor=none;fillColor=none;align=left;verticalAlign=top;spacingLeft=4;spacingRight=4;overflow=hidden;rotatable=0;points=[[0,0.5],[1,0.5]];portConstraint=eastwest;whiteSpace=wrap;html=1;" vertex="1" parent="yHOgOAt53ZyQ0nN1Mm53-4">
          <mxGeometry y="26" width="200" height="64" as="geometry" />
        </mxCell>
        <mxCell id="O6bAntiXb9O7OsNbi0wT-6" value="" style="line;strokeWidth=1;fillColor=none;align=left;verticalAlign=middle;spacingTop=-1;spacingLeft=3;spacingRight=3;rotatable=0;labelPosition=right;points=[];portConstraint=eastwest;strokeColor=inherit;" vertex="1" parent="yHOgOAt53ZyQ0nN1Mm53-4">
          <mxGeometry y="90" width="200" height="8" as="geometry" />
        </mxCell>
        <mxCell id="yHOgOAt53ZyQ0nN1Mm53-6" value="+Execute(command:&amp;nbsp;ICommand)&lt;div&gt;+Undo()&lt;/div&gt;&lt;div&gt;+Redo()&lt;/div&gt;" style="text;strokeColor=none;fillColor=none;align=left;verticalAlign=top;spacingLeft=4;spacingRight=4;overflow=hidden;rotatable=0;points=[[0,0.5],[1,0.5]];portConstraint=eastwest;whiteSpace=wrap;html=1;fontStyle=0" parent="yHOgOAt53ZyQ0nN1Mm53-4" vertex="1">
          <mxGeometry y="98" width="200" height="62" as="geometry" />
        </mxCell>
        <mxCell id="O6bAntiXb9O7OsNbi0wT-1" value="&lt;span style=&quot;font-weight: 400;&quot;&gt;Canvas&lt;/span&gt;" style="swimlane;fontStyle=1;align=center;verticalAlign=top;childLayout=stackLayout;horizontal=1;startSize=26;horizontalStack=0;resizeParent=1;resizeParentMax=0;resizeLast=0;collapsible=1;marginBottom=0;whiteSpace=wrap;html=1;" vertex="1" parent="WIyWlLk6GJQsqaUBKTNV-1">
          <mxGeometry x="100" y="540" width="240" height="210" as="geometry" />
        </mxCell>
        <mxCell id="O6bAntiXb9O7OsNbi0wT-23" value="&lt;span style=&quot;color: rgb(0, 0, 0); font-family: Helvetica; font-size: 12px; font-style: normal; font-variant-ligatures: normal; font-variant-caps: normal; font-weight: 400; letter-spacing: normal; orphans: 2; text-align: left; text-indent: 0px; text-transform: none; widows: 2; word-spacing: 0px; -webkit-text-stroke-width: 0px; white-space: normal; background-color: rgb(251, 251, 251); text-decoration-thickness: initial; text-decoration-style: initial; text-decoration-color: initial; float: none; display: inline !important;&quot;&gt;- graphics: Graphics&lt;/span&gt;&lt;div style=&quot;forced-color-adjust: none; color: rgb(0, 0, 0); font-family: Helvetica; font-size: 12px; font-style: normal; font-variant-ligatures: normal; font-variant-caps: normal; font-weight: 400; letter-spacing: normal; orphans: 2; text-align: left; text-indent: 0px; text-transform: none; widows: 2; word-spacing: 0px; -webkit-text-stroke-width: 0px; white-space: normal; background-color: rgb(251, 251, 251); text-decoration-thickness: initial; text-decoration-style: initial; text-decoration-color: initial;&quot;&gt;- bitmap: Bitmap&lt;/div&gt;&lt;div style=&quot;forced-color-adjust: none; color: rgb(0, 0, 0); font-family: Helvetica; font-size: 12px; font-style: normal; font-variant-ligatures: normal; font-variant-caps: normal; font-weight: 400; letter-spacing: normal; orphans: 2; text-align: left; text-indent: 0px; text-transform: none; widows: 2; word-spacing: 0px; -webkit-text-stroke-width: 0px; white-space: normal; background-color: rgb(251, 251, 251); text-decoration-thickness: initial; text-decoration-style: initial; text-decoration-color: initial;&quot;&gt;- stbitmap: Bitmap&lt;div style=&quot;forced-color-adjust: none;&quot;&gt;- picture: PictureBox&lt;/div&gt;&lt;/div&gt;" style="text;whiteSpace=wrap;html=1;" vertex="1" parent="O6bAntiXb9O7OsNbi0wT-1">
          <mxGeometry y="26" width="240" height="64" as="geometry" />
        </mxCell>
        <mxCell id="O6bAntiXb9O7OsNbi0wT-3" value="" style="line;strokeWidth=1;fillColor=none;align=left;verticalAlign=middle;spacingTop=-1;spacingLeft=3;spacingRight=3;rotatable=0;labelPosition=right;points=[];portConstraint=eastwest;strokeColor=inherit;" vertex="1" parent="O6bAntiXb9O7OsNbi0wT-1">
          <mxGeometry y="90" width="240" height="8" as="geometry" />
        </mxCell>
        <mxCell id="O6bAntiXb9O7OsNbi0wT-4" value="+ Canvas(pictureBox: PictureBox)&lt;div&gt;+ GetBitmap():&amp;nbsp;Bitmap&lt;/div&gt;&lt;div&gt;+ Restore(backup: Bitmap)&lt;/div&gt;&lt;div&gt;+ StartDrawing()&lt;/div&gt;&lt;div&gt;+ DrawTempLine(&lt;span style=&quot;background-color: transparent; color: light-dark(rgb(0, 0, 0), rgb(255, 255, 255));&quot;&gt;pen:&amp;nbsp;&lt;/span&gt;&lt;span style=&quot;background-color: transparent; color: light-dark(rgb(0, 0, 0), rgb(255, 255, 255));&quot;&gt;Pen&lt;/span&gt;&lt;span style=&quot;background-color: transparent; color: light-dark(rgb(0, 0, 0), rgb(255, 255, 255));&quot;&gt;, points:&amp;nbsp;&lt;/span&gt;&lt;span style=&quot;background-color: transparent; color: light-dark(rgb(0, 0, 0), rgb(255, 255, 255));&quot;&gt;Point[]&lt;/span&gt;&lt;span style=&quot;background-color: transparent; color: light-dark(rgb(0, 0, 0), rgb(255, 255, 255));&quot;&gt;)&lt;/span&gt;&lt;/div&gt;&lt;div&gt;&lt;font style=&quot;color: rgb(0, 0, 0);&quot;&gt;&lt;span style=&quot;background-color: transparent;&quot;&gt;+ DrawLine(&lt;/span&gt;&lt;span style=&quot;background-color: transparent;&quot;&gt;pen:&amp;nbsp;&lt;/span&gt;&lt;span style=&quot;background-color: transparent;&quot;&gt;Pen&lt;/span&gt;&lt;span style=&quot;background-color: transparent;&quot;&gt;, points:&amp;nbsp;&lt;/span&gt;&lt;span style=&quot;background-color: transparent;&quot;&gt;Point&lt;/span&gt;&lt;/font&gt;&lt;span style=&quot;background-color: transparent; color: light-dark(rgb(0, 0, 0), rgb(255, 255, 255));&quot;&gt;[]&lt;/span&gt;&lt;span style=&quot;background-color: transparent; color: light-dark(rgb(0, 0, 0), rgb(237, 237, 237));&quot;&gt;)&lt;/span&gt;&lt;/div&gt;&lt;div&gt;+ Clear(pictureBox: PictureBox)&lt;/div&gt;&lt;div&gt;&lt;br&gt;&lt;/div&gt;" style="text;strokeColor=none;fillColor=none;align=left;verticalAlign=top;spacingLeft=4;spacingRight=4;overflow=hidden;rotatable=0;points=[[0,0.5],[1,0.5]];portConstraint=eastwest;whiteSpace=wrap;html=1;" vertex="1" parent="O6bAntiXb9O7OsNbi0wT-1">
          <mxGeometry y="98" width="240" height="112" as="geometry" />
        </mxCell>
        <mxCell id="O6bAntiXb9O7OsNbi0wT-7" style="edgeStyle=orthogonalEdgeStyle;rounded=0;orthogonalLoop=1;jettySize=auto;html=1;entryX=0.003;entryY=0.113;entryDx=0;entryDy=0;entryPerimeter=0;endArrow=open;endFill=0;endSize=12;" edge="1" parent="WIyWlLk6GJQsqaUBKTNV-1" source="KC0JBzl_3fo8Be8MP1vC-3" target="yHOgOAt53ZyQ0nN1Mm53-4">
          <mxGeometry relative="1" as="geometry" />
        </mxCell>
        <mxCell id="O6bAntiXb9O7OsNbi0wT-9" style="edgeStyle=orthogonalEdgeStyle;rounded=0;orthogonalLoop=1;jettySize=auto;html=1;entryX=0.007;entryY=0.22;entryDx=0;entryDy=0;entryPerimeter=0;startArrow=diamond;startFill=0;startSize=12;endArrow=none;endFill=0;endSize=12;" edge="1" parent="WIyWlLk6GJQsqaUBKTNV-1" source="yHOgOAt53ZyQ0nN1Mm53-4" target="KC0JBzl_3fo8Be8MP1vC-35">
          <mxGeometry relative="1" as="geometry" />
        </mxCell>
        <mxCell id="O6bAntiXb9O7OsNbi0wT-12" style="edgeStyle=orthogonalEdgeStyle;rounded=0;orthogonalLoop=1;jettySize=auto;html=1;dashed=1;endArrow=none;endFill=0;endSize=12;startFill=0;" edge="1" parent="WIyWlLk6GJQsqaUBKTNV-1">
          <mxGeometry relative="1" as="geometry">
            <mxPoint x="669.0007526881719" y="610" as="sourcePoint" />
            <mxPoint x="632" y="420" as="targetPoint" />
            <Array as="points">
              <mxPoint x="669" y="475" />
              <mxPoint x="632" y="475" />
            </Array>
          </mxGeometry>
        </mxCell>
        <mxCell id="O6bAntiXb9O7OsNbi0wT-14" style="edgeStyle=orthogonalEdgeStyle;rounded=0;orthogonalLoop=1;jettySize=auto;html=1;endArrow=open;endFill=0;endSize=12;" edge="1" parent="WIyWlLk6GJQsqaUBKTNV-1" source="KC0JBzl_3fo8Be8MP1vC-12">
          <mxGeometry relative="1" as="geometry">
            <mxPoint x="340" y="599" as="targetPoint" />
            <Array as="points">
              <mxPoint x="390" y="599" />
              <mxPoint x="390" y="599" />
            </Array>
          </mxGeometry>
        </mxCell>
        <mxCell id="O6bAntiXb9O7OsNbi0wT-15" style="edgeStyle=orthogonalEdgeStyle;rounded=0;orthogonalLoop=1;jettySize=auto;html=1;endArrow=open;endFill=0;endSize=12;entryX=0.993;entryY=0.17;entryDx=0;entryDy=0;entryPerimeter=0;" edge="1" parent="WIyWlLk6GJQsqaUBKTNV-1" target="O6bAntiXb9O7OsNbi0wT-4">
          <mxGeometry relative="1" as="geometry">
            <mxPoint x="580" y="720" as="sourcePoint" />
            <mxPoint x="320" y="657" as="targetPoint" />
            <Array as="points">
              <mxPoint x="580" y="724" />
              <mxPoint x="360" y="724" />
              <mxPoint x="360" y="657" />
            </Array>
          </mxGeometry>
        </mxCell>
        <mxCell id="O6bAntiXb9O7OsNbi0wT-16" style="edgeStyle=orthogonalEdgeStyle;rounded=0;orthogonalLoop=1;jettySize=auto;html=1;entryX=0.299;entryY=0.995;entryDx=0;entryDy=0;entryPerimeter=0;endArrow=block;endFill=0;dashed=1;endSize=12;" edge="1" parent="WIyWlLk6GJQsqaUBKTNV-1" source="KC0JBzl_3fo8Be8MP1vC-11" target="KC0JBzl_3fo8Be8MP1vC-35">
          <mxGeometry relative="1" as="geometry">
            <Array as="points">
              <mxPoint x="632" y="605" />
            </Array>
          </mxGeometry>
        </mxCell>
        <mxCell id="O6bAntiXb9O7OsNbi0wT-26" style="edgeStyle=orthogonalEdgeStyle;rounded=0;orthogonalLoop=1;jettySize=auto;html=1;dashed=1;endArrow=open;endFill=0;endSize=12;entryX=0;entryY=0.059;entryDx=0;entryDy=0;entryPerimeter=0;" edge="1" parent="WIyWlLk6GJQsqaUBKTNV-1" target="KC0JBzl_3fo8Be8MP1vC-11">
          <mxGeometry relative="1" as="geometry">
            <mxPoint x="230" y="380" as="sourcePoint" />
            <mxPoint x="370" y="530" as="targetPoint" />
            <Array as="points">
              <mxPoint x="230" y="530" />
            </Array>
          </mxGeometry>
        </mxCell>
        <mxCell id="O6bAntiXb9O7OsNbi0wT-27" style="edgeStyle=orthogonalEdgeStyle;rounded=0;orthogonalLoop=1;jettySize=auto;html=1;dashed=1;endArrow=open;endFill=0;endSize=12;" edge="1" parent="WIyWlLk6GJQsqaUBKTNV-1" source="KC0JBzl_3fo8Be8MP1vC-3" target="yHOgOAt53ZyQ0nN1Mm53-0">
          <mxGeometry relative="1" as="geometry">
            <Array as="points">
              <mxPoint x="202" y="310" />
              <mxPoint x="750" y="310" />
            </Array>
          </mxGeometry>
        </mxCell>
        <mxCell id="O6bAntiXb9O7OsNbi0wT-28" value="-canvas" style="text;html=1;align=center;verticalAlign=middle;whiteSpace=wrap;rounded=0;" vertex="1" parent="WIyWlLk6GJQsqaUBKTNV-1">
          <mxGeometry x="142" y="500" width="60" height="30" as="geometry" />
        </mxCell>
        <mxCell id="O6bAntiXb9O7OsNbi0wT-29" value="-history" style="text;whiteSpace=wrap;" vertex="1" parent="WIyWlLk6GJQsqaUBKTNV-1">
          <mxGeometry x="280" y="310" width="70" height="40" as="geometry" />
        </mxCell>
      </root>
    </mxGraphModel>
  </diagram>
</mxfile>
